# WaveFront *.obj file (generated by CINEMA 4D)

v -0.03958213701844 268.34963989257812 -0.54636323451996
v -0.07233125716448 268.34963989257812 -0.49313029646873
v -0.03958213701844 268.28713989257812 -0.54636323451996
v -0.07233125716448 268.28713989257812 -0.49313029646873
v 0.40676513314247 268.34963989257812 -0.19838823378086
v 0.43951424956322 268.34963989257812 -0.25162115693092
v 0.40676513314247 268.28713989257812 -0.19838823378086
v 0.43951424956322 268.28713989257812 -0.25162115693092
# 8 vertices

vn -0.52398592233658 0 0.85172694921494
vn -0.85172694921494 0 -0.52398592233658
vn 0.52398592233658 0 -0.85172694921494
vn 0.85172694921494 0 0.52398592233658
vn 0 1 0
vn 0 -1 0
# 6 normals

vt 0 1 0
vt 0.875 1 0
vt 0.875 0.9375 0
vt 0 0.9375 0
vt 0.0625 1 0
vt 0.0625 0.9375 0
# 6 texture coordinates

o cube
usemtl Mat
f 4/4/1 7/3/1 5/2/1 2/1/1
f 3/4/2 4/6/2 2/5/2 1/1/2
f 8/4/3 3/3/3 1/2/3 6/1/3
f 7/4/4 8/6/4 6/5/4 5/1/4
f 6/4/5 1/3/5 2/2/5 5/1/5
f 7/4/6 4/3/6 3/2/6 8/1/6

v -0.46532067656517 268.34963989257812 0.14566488564014
v -0.49806979298592 268.34963989257812 0.19889782369137
v -0.46532067656517 268.28713989257812 0.14566488564014
v -0.49806979298592 268.28713989257812 0.19889782369137
v -0.01897340454161 268.34963989257812 0.49363988637924
v 0.01377571374178 268.34963989257812 0.44040697813034
v -0.01897340454161 268.28713989257812 0.49363988637924
v 0.01377571374178 268.28713989257812 0.44040697813034
# 8 vertices

# 0 normal

# 0 texture coordinate

o cube_1
usemtl Mat
f 12/4/1 15/3/1 13/2/1 10/1/1
f 11/4/2 12/6/2 10/5/2 9/1/2
f 16/4/3 11/3/3 9/2/3 14/1/3
f 15/4/4 16/6/4 14/5/4 13/1/4
f 14/4/5 9/3/5 10/2/5 13/1/5
f 15/4/6 12/3/6 11/2/6 16/1/6

v -0.07233125716448 268.22463989257812 -0.49313029646873
v -0.46532067656517 268.22463989257812 0.14566488564014
v -0.41208773851395 268.28713989257812 0.17841401696205
v -0.01909832283854 268.28713989257812 -0.46038118004799
v -0.41208773851395 268.22463989257812 0.17841401696205
v -0.01909832283854 268.22463989257812 -0.46038118004799
# 6 vertices

# 0 normal

vt 0.75 1 0
vt 0.75 0.9375 0
vt 0.0625 0.25 0
vt 0 0.25 0
# 4 texture coordinates

o cube_2
usemtl Mat
f 18/4/1 21/6/1 19/5/1 11/1/1
f 17/4/2 18/8/2 11/7/2 4/1/2
f 22/4/3 17/6/3 4/5/3 20/1/3
f 21/4/4 22/8/4 20/7/4 19/1/4
f 20/10/5 4/9/5 11/5/5 19/1/5
f 21/10/6 18/9/6 17/5/6 22/1/6

v 0.02604101784527 268.34963989257812 0.30119198560715
v -0.03945722058415 268.34963989257812 0.40765783190727
v 0.02604101784527 268.28713989257812 0.30119198560715
v -0.03945722058415 268.28713989257812 0.40765783190727
v 0.07927395403385 268.34963989257812 0.33394110202789
v 0.07927395403385 268.28713989257812 0.33394110202789
# 6 vertices

# 0 normal

vt 0.125 1 0
vt 0.125 0.9375 0
vt 0.0625 0.875 0
vt 0 0.875 0
# 4 texture coordinates

o cube_3
usemtl Mat
f 26/4/1 16/6/1 14/5/1 24/1/1
f 25/4/2 26/12/2 24/11/2 23/1/2
f 28/4/3 25/6/3 23/5/3 27/1/3
f 16/4/4 28/12/4 27/11/4 14/1/4
f 27/14/5 23/13/5 24/5/5 14/1/5
f 16/14/6 26/13/6 25/5/6 28/1/6

v 0.35353219509125 268.34963989257812 -0.23113735020161
v 0.28803396224976 268.34963989257812 -0.12467148900032
v 0.35353219509125 268.28713989257812 -0.23113735020161
v 0.28803396224976 268.28713989257812 -0.12467148900032
v 0.34126690030098 268.34963989257812 -0.09192237257957
v 0.34126690030098 268.28713989257812 -0.09192237257957
# 6 vertices

# 0 normal

# 0 texture coordinate

o cube_4
usemtl Mat
f 32/4/1 34/6/1 33/5/1 30/1/1
f 31/4/2 32/12/2 30/11/2 29/1/2
f 7/4/3 31/6/3 29/5/3 5/1/3
f 34/4/4 7/12/4 5/11/4 33/1/4
f 5/14/5 29/13/5 30/5/5 33/1/5
f 34/14/6 32/13/6 31/5/6 7/1/6

v 0.05879013612866 268.28713989257812 0.24795904755592
v -0.00670810043812 268.28713989257812 0.35442492365837
v 0.05879013612866 268.22463989257812 0.24795904755592
v -0.00670810043812 268.22463989257812 0.35442492365837
v 0.04652483388782 268.28713989257812 0.38717404007912
v 0.1120230704546 268.28713989257812 0.28070816397667
v 0.04652483388782 268.22463989257812 0.38717404007912
v 0.1120230704546 268.22463989257812 0.28070816397667
# 8 vertices

# 0 normal

# 0 texture coordinate

o cube_5
usemtl Mat
f 38/4/1 41/6/1 39/5/1 36/1/1
f 37/4/2 38/12/2 36/11/2 35/1/2
f 42/4/3 37/6/3 35/5/3 40/1/3
f 41/4/4 42/12/4 40/11/4 39/1/4
f 40/14/5 35/13/5 36/5/5 39/1/5
f 41/14/6 38/13/6 37/5/6 42/1/6

v 0.0915392562747 268.22463989257812 0.1947261095047
v 0.02604101784527 268.22463989257812 0.30119198560715
v 0.0915392562747 268.16213989257812 0.1947261095047
v 0.02604101784527 268.16213989257812 0.30119198560715
v 0.07927395403385 268.22463989257812 0.33394110202789
v 0.14477218687534 268.22463989257812 0.22747522592545
v 0.07927395403385 268.16213989257812 0.33394110202789
v 0.14477218687534 268.16213989257812 0.22747522592545
# 8 vertices

# 0 normal

# 0 texture coordinate

o cube_6
usemtl Mat
f 46/4/1 49/6/1 47/5/1 44/1/1
f 45/4/2 46/12/2 44/11/2 43/1/2
f 50/4/3 45/6/3 43/5/3 48/1/3
f 49/4/4 50/12/4 48/11/4 47/1/4
f 48/14/5 43/13/5 44/5/5 47/1/5
f 49/14/6 46/13/6 45/5/6 50/1/6

v 0.22253572940826 268.28713989257812 -0.0182056222111
v 0.0915392562747 268.28713989257812 0.1947261095047
v 0.22253572940826 268.03713989257812 -0.0182056222111
v 0.0915392562747 268.03713989257812 0.1947261095047
v 0.14477218687534 268.28713989257812 0.22747522592545
v 0.27576866745949 268.28713989257812 0.01454349700361
v 0.14477218687534 268.03713989257812 0.22747522592545
v 0.27576866745949 268.03713989257812 0.01454349700361
# 8 vertices

# 0 normal

vt 0.0625 0.75 0
vt 0 0.75 0
vt 0.25 1 0
vt 0.25 0.75 0
# 4 texture coordinates

o cube_7
usemtl Mat
f 54/16/1 57/15/1 55/5/1 52/1/1
f 53/16/2 54/18/2 52/17/2 51/1/2
f 58/16/3 53/15/3 51/5/3 56/1/3
f 57/16/4 58/18/4 56/17/4 55/1/4
f 56/16/5 51/15/5 52/5/5 55/1/5
f 57/16/6 54/15/6 53/5/6 58/1/6

v 0.3207830786705 268.28713989257812 -0.17790442705154
v 0.25528484582901 268.28713989257812 -0.07143855839968
v 0.3207830786705 268.22463989257812 -0.17790442705154
v 0.25528484582901 268.22463989257812 -0.07143855839968
v 0.30851778388023 268.28713989257812 -0.03868943452835
v 0.37401601672173 268.28713989257812 -0.14515529572964
v 0.30851778388023 268.22463989257812 -0.03868943452835
v 0.37401601672173 268.22463989257812 -0.14515529572964
# 8 vertices

# 0 normal

# 0 texture coordinate

o cube_8
usemtl Mat
f 62/4/1 65/6/1 63/5/1 60/1/1
f 61/4/2 62/12/2 60/11/2 59/1/2
f 66/4/3 61/6/3 59/5/3 64/1/3
f 65/4/4 66/12/4 64/11/4 63/1/4
f 64/14/5 59/13/5 60/5/5 63/1/5
f 65/14/6 62/13/6 61/5/6 66/1/6

v 0.28803396224976 268.22463989257812 -0.12467148900032
v 0.22253572940826 268.22463989257812 -0.0182056222111
v 0.28803396224976 268.16213989257812 -0.12467148900032
v 0.22253572940826 268.16213989257812 -0.0182056222111
v 0.27576866745949 268.22463989257812 0.01454349700361
v 0.34126690030098 268.22463989257812 -0.09192237257957
v 0.27576866745949 268.16213989257812 0.01454349700361
v 0.34126690030098 268.16213989257812 -0.09192237257957
# 8 vertices

# 0 normal

# 0 texture coordinate

o cube_9
usemtl Mat
f 70/4/1 73/6/1 71/5/1 68/1/1
f 69/4/2 70/12/2 68/11/2 67/1/2
f 74/4/3 69/6/3 67/5/3 72/1/3
f 73/4/4 74/12/4 72/11/4 71/1/4
f 72/14/5 67/13/5 68/5/5 71/1/5
f 73/14/6 70/13/6 69/5/6 74/1/6

v -0.03958213701844 268.22463989257812 -0.54636323451996
v 0.01365079544485 268.28713989257812 -0.51361411809921
v 0.01365079544485 268.22463989257812 -0.51361411809921
# 3 vertices

# 0 normal

# 0 texture coordinate

o cube_10
usemtl Mat
f 17/4/1 22/6/1 20/5/1 4/1/1
f 75/4/2 17/6/2 4/5/2 3/1/2
f 77/4/3 75/6/3 3/5/3 76/1/3
f 22/4/4 77/6/4 76/5/4 20/1/4
f 76/4/5 3/6/5 4/5/5 20/1/5
f 22/4/6 17/6/6 75/5/6 77/1/6

v -0.49806979298592 268.22463989257812 0.19889782369137
v -0.44483688473701 268.28713989257812 0.23164694011211
v -0.44483688473701 268.22463989257812 0.23164694011211
# 3 vertices

# 0 normal

# 0 texture coordinate

o cube_11
usemtl Mat
f 78/4/1 80/6/1 79/5/1 12/1/1
f 18/4/2 78/6/2 12/5/2 11/1/2
f 21/4/3 18/6/3 11/5/3 19/1/3
f 80/4/4 21/6/4 19/5/4 79/1/4
f 19/4/5 11/6/5 12/5/5 79/1/5
f 80/4/6 78/6/6 18/5/6 21/1/6

v 0.41768574714661 268.81997680664062 -0.16139282286167
v 0.06781074404716 268.81997680664062 0.44460844993591
v 0.41768574714661 268.76165771484375 -0.16139282286167
v 0.06781074404716 268.76165771484375 0.44460844993591
v 0.11831084638834 268.81997680664062 0.47376468777657
v 0.4681858420372 268.81997680664062 -0.13223657011986
v 0.11831084638834 268.76165771484375 0.47376468777657
v 0.4681858420372 268.76165771484375 -0.13223657011986
# 8 vertices

o cube.1
usemtl Mat
f 84 87 85 82
f 83 84 82 81
f 88 83 81 86
f 87 88 86 85
f 86 81 82 85
f 87 84 83 88

v -0.15915928781033 268.81997680664062 -0.56176793575287
v -0.18831554055214 268.81997680664062 -0.51126784086227
v -0.15915928781033 268.76165771484375 -0.56176793575287
v -0.18831554055214 268.76165771484375 -0.51126784086227
v 0.49734210968018 268.81997680664062 -0.18273667991161
v 0.49734210968018 268.76165771484375 -0.18273667991161
# 6 vertices

o cube_1.1
usemtl Mat
f 92 88 86 90
f 91 92 90 89
f 94 91 89 93
f 88 94 93 86
f 93 89 90 86
f 88 92 91 94

v -0.53819054365158 268.81997680664062 0.09473345428705
v -0.56734681129456 268.81997680664062 0.14523355662823
v -0.53819054365158 268.76165771484375 0.09473345428705
v -0.56734681129456 268.76165771484375 0.14523355662823
v 0.08915460109711 268.81997680664062 0.52426481246948
v 0.08915460109711 268.76165771484375 0.52426481246948
# 6 vertices

o cube_2.1
usemtl Mat
f 98 100 99 96
f 97 98 96 95
f 87 97 95 85
f 100 87 85 99
f 85 95 96 99
f 100 98 97 87

v 0.38852947950363 268.76165771484375 -0.1108927205205
v 0.2719044983387 268.76165771484375 0.09110771119595
v 0.38852947950363 268.70333862304688 -0.1108927205205
v 0.2719044983387 268.70333862304688 0.09110771119595
v 0.32240459322929 268.76165771484375 0.12026395648718
v 0.43902960419655 268.76165771484375 -0.08173646777868
v 0.32240459322929 268.70333862304688 0.12026395648718
v 0.43902960419655 268.70333862304688 -0.08173646777868
# 8 vertices

o cube_3.1
usemtl Mat
f 104 107 105 102
f 103 104 102 101
f 108 103 101 106
f 107 108 106 105
f 106 101 102 105
f 107 104 103 108

v 0.21359199285507 268.76165771484375 0.1921079158783
v 0.0969669893384 268.76165771484375 0.39410835504532
v 0.21359199285507 268.70333862304688 0.1921079158783
v 0.0969669893384 268.70333862304688 0.39410835504532
v 0.14746709167957 268.76165771484375 0.42326459288597
v 0.26409208774567 268.76165771484375 0.22126416862011
v 0.14746709167957 268.70333862304688 0.42326459288597
v 0.26409208774567 268.70333862304688 0.22126416862011
# 8 vertices

o cube_4.1
usemtl Mat
f 112 115 113 110
f 111 112 110 109
f 116 111 109 114
f 115 116 114 113
f 114 109 110 113
f 115 112 111 116

v 0.26120653748512 268.46377563476562 0.22391568124294
v 0.26120653748512 268.52468872070312 0.22391568124294
v 0.32746532559395 268.46377563476562 0.10915207117796
v 0.32746532559395 268.52468872070312 0.10915207117796
v -0.03856446221471 268.46377563476562 -0.10217533260584
v -0.03856446221471 268.52468872070312 -0.10217533260584
v -0.1048232614994 268.46377563476562 0.01258828304708
v -0.1048232614994 268.52468872070312 0.01258828304708
# 8 vertices

vn 0.86602544784546 0 0.49999997019768
vn 0.50000005960464 0 -0.86602538824081
vn -0.86602538824081 0 -0.49999997019768
vn -0.50000005960464 0 0.86602538824081
# 4 normals

vt 0 0 0
vt 1 1 0
vt 1 0 0
# 3 texture coordinates

o arm.2
usemtl default
f 119/21/7 120/20/7 118/1/7 117/19/7
f 121/21/8 122/20/8 120/1/8 119/19/8
f 123/21/9 124/20/9 122/1/9 121/19/9
f 117/21/10 118/20/10 124/1/10 123/19/10
f 120/21/5 122/20/5 124/1/5 118/19/5
f 121/21/6 119/20/6 117/1/6 123/19/6

v 0.25906959176064 268.40664672851562 0.27519574761391
v 0.25906959176064 268.46755981445312 0.27519574761391
v 0.37080669403076 268.40664672851562 0.08166140317917
v 0.37080669403076 268.46755981445312 0.08166140317917
v -0.0364275239408 268.40664672851562 -0.15345537662506
v -0.0364275239408 268.46755981445312 -0.15345537662506
v -0.14816462993622 268.40664672851562 0.04007894918323
v -0.14816462993622 268.46755981445312 0.04007894918323
# 8 vertices

vn 0.86602538824081 0 0.49999997019768
vn 0.5 0 -0.86602538824081
vn -0.86602538824081 0 -0.5
# 3 normals

# 0 texture coordinate

o arm.1
usemtl default
f 127/21/11 128/20/11 126/1/11 125/19/11
f 129/21/12 130/20/12 128/1/12 127/19/12
f 131/21/13 132/20/13 130/1/13 129/19/13
f 125/21/10 126/20/10 132/1/10 131/19/10
f 128/21/5 130/20/5 132/1/5 126/19/5
f 129/21/6 127/20/6 125/1/6 131/19/6

v 0.23846738040447 268.3404541015625 0.26330104470253
v 0.23846738040447 268.4013671875 0.26330104470253
v 0.35020449757576 268.3404541015625 0.06976671516895
v 0.35020449757576 268.4013671875 0.06976671516895
v -0.01582531444728 268.3404541015625 -0.14156068861485
v -0.01582531444728 268.4013671875 -0.14156068861485
v -0.12756241858006 268.3404541015625 0.05197364464402
v -0.12756241858006 268.4013671875 0.05197364464402
# 8 vertices

vn 0.86602538824081 0 0.50000005960464
# 1 normal

# 0 texture coordinate

o arm
usemtl default
f 135/21/14 136/20/14 134/1/14 133/19/14
f 137/21/8 138/20/8 136/1/8 135/19/8
f 139/21/13 140/20/13 138/1/13 137/19/13
f 133/21/10 134/20/10 140/1/10 139/19/10
f 136/21/5 138/20/5 140/1/5 134/19/5
f 137/21/6 135/20/6 133/1/6 139/19/6

v -0.76604396104813 266.45269775390625 -0.45207068324089
v -0.1059318035841 267.19259643554688 -0.07095474004745
v -0.60757428407669 266.45269775390625 -0.7265482544899
v 0.05253789201379 267.19259643554688 -0.34543231129646
v -0.86252331733704 266.75595092773438 -0.87374311685562
v -0.20241111516953 267.49588012695312 -0.49262717366219
v -1.02099299430847 266.75595092773438 -0.59926557540894
v -0.36088082194328 267.49588012695312 -0.21814961731434
# 8 vertices

# 0 texture coordinate

o leg
usemtl Mat
f 143/21 144/20 142/1 141/19
f 145/21 146/20 144/1 143/19
f 147/21 148/20 146/1 145/19
f 141/21 142/20 148/1 147/19
f 144/21 146/20 148/1 142/19
f 145/21 143/20 141/1 147/19

v -0.60513490438461 266.25247192382812 0.0300573874265
v -0.14775234460831 267.17416381835938 0.29412731528282
v -0.44666519761086 266.25247192382812 -0.244420170784
v 0.010717343539 267.17416381835938 0.01964975148439
v -0.76425248384476 266.46258544921875 -0.42777928709984
v -0.30686995387077 267.38430786132812 -0.16370937228203
v -0.92272216081619 266.46258544921875 -0.15330173075199
v -0.46533966064453 267.38430786132812 0.11076819896698
# 8 vertices

# 0 texture coordinate

o leg.1
usemtl Mat
f 151/21 152/20 150/1 149/19
f 153/21 154/20 152/1 151/19
f 155/21 156/20 154/1 153/19
f 149/21 150/20 156/1 155/19
f 152/21 154/20 156/1 150/19
f 153/21 151/20 149/1 155/19

v 0.99590313434601 268.3089599609375 0.19296698272228
v 0.08499608933926 268.457763671875 -0.33294546604156
v 1.10764026641846 268.3089599609375 -0.00056735763792
v 0.19673319160938 268.457763671875 -0.52647978067398
v 1.05637311935425 267.89047241210938 -0.03016645647585
v 0.14546604454517 268.03927612304688 -0.55607891082764
v 0.94463604688644 267.89047241210938 0.16336788237095
v 0.03372894600034 268.03927612304688 -0.3625445663929
# 8 vertices

# 0 texture coordinate

o arm_1
usemtl Mat
f 159/21 160/20 158/1 157/19
f 161/21 162/20 160/1 159/19
f 163/21 164/20 162/1 161/19
f 157/21 158/20 164/1 163/19
f 160/21 162/20 164/1 158/19
f 161/21 159/20 157/1 163/19

v 1.27116858959198 268.34283447265625 0.02865365706384
v 1.08372974395752 268.35064697265625 0.3555181324482
v 1.20226871967316 267.84716796875 0.00099367694929
v 1.0148298740387 267.85498046875 0.32785815000534
v 1.13766181468964 268.34228515625 0.38664475083351
v 1.3251006603241 268.33447265625 0.05978027358651
v 1.0687620639801 267.84664916992188 0.35898476839066
v 1.25620079040527 267.83883666992188 0.03212029114366
# 8 vertices

o cube_12
usemtl Mat
f 168 171 169 166
f 167 168 166 165
f 172 167 165 170
f 171 172 170 169
f 170 165 166 169
f 171 168 167 172

v 1.16890168190002 268.34097290039062 0.33216732740402
v 1.11148512363434 267.92794799804688 0.30911734700203
v 1.08024525642395 267.92926025390625 0.36359477043152
v 1.19159388542175 268.33395385742188 0.41777136921883
v 1.22283375263214 268.3326416015625 0.36329394578934
v 1.13417744636536 267.9208984375 0.39472138881683
v 1.16541719436646 267.91958618164062 0.34024396538734
# 7 vertices

o cube_1_1
usemtl Mat
f 175 178 176 169
f 174 175 169 173
f 179 174 173 177
f 178 179 177 176
f 177 173 169 176
f 178 175 174 179

v 1.23138129711151 268.33837890625 0.22321251034737
v 1.20014142990112 268.33969116210938 0.27768993377686
v 1.17396473884583 267.92535400390625 0.20016252994537
v 1.14272487163544 267.9266357421875 0.25463995337486
v 1.25407350063324 268.33132934570312 0.30881655216217
v 1.28531336784363 268.33004760742188 0.25433912873268
v 1.19665694236755 267.91830444335938 0.28576654195786
v 1.22789680957794 267.9169921875 0.23128914833069
# 8 vertices

o cube_2_1
usemtl Mat
f 183 186 184 181
f 182 183 181 180
f 187 182 180 185
f 186 187 185 184
f 185 180 181 184
f 186 183 182 187

v 1.293860912323 268.33578491210938 0.11425768584013
v 1.26262104511261 268.33706665039062 0.16873510181904
v 1.24792766571045 268.00534057617188 0.09581770002842
v 1.21668779850006 268.00665283203125 0.15029510855675
v 1.31655311584473 268.3287353515625 0.19986172020435
v 1.34779298305511 268.32742309570312 0.14538429677486
v 1.27061986923218 267.998291015625 0.18142172694206
v 1.30185973644257 267.99700927734375 0.12694431841373
# 8 vertices

o cube_3_1
usemtl Mat
f 191 194 192 189
f 190 191 189 188
f 195 190 188 193
f 194 195 193 192
f 193 188 189 192
f 194 191 190 195

v 1.35634052753448 268.33316040039062 0.00530285900459
v 1.32189059257507 268.08535766601562 -0.00852713081986
v 1.29065072536469 268.08663940429688 0.04595028236508
v 1.37903273105621 268.32614135742188 0.09090688824654
v 1.4102725982666 268.3248291015625 0.03642947599292
v 1.3445827960968 268.07830810546875 0.07707689702511
v 1.37582266330719 268.07699584960938 0.02259948477149
# 7 vertices

o cube_4_1
usemtl Mat
f 198 201 199 170
f 197 198 170 196
f 202 197 196 200
f 201 202 200 199
f 200 196 170 199
f 201 198 197 202

v 0.78577989339828 268.41793823242188 -0.25148588418961
v 0.75454014539719 268.41925048828125 -0.19700847566128
v 0.71688008308411 267.92227172851562 -0.27914586663246
v 0.68564027547836 267.923583984375 -0.22466844320297
v 1.23992884159088 268.3441162109375 0.08313106745481
v 1.17102897167206 267.84848022460938 0.05547108873725
# 6 vertices

o cube_5_1
usemtl Mat
f 206 208 207 204
f 205 206 204 203
f 167 205 203 165
f 208 167 165 207
f 165 203 204 207
f 208 206 205 167

v 1.02420043945312 268.37750244140625 -0.04137539118528
v 0.8992412686348 268.38272094726562 0.17653426527977
v 1.01271712779999 268.29489135742188 -0.04598538950086
v 0.88775795698166 268.30010986328125 0.17192426323891
v 1.11496961116791 268.34933471679688 0.30104070901871
v 1.10348629951477 268.2667236328125 0.29643073678017
v 1.22844552993774 268.26150512695312 0.07852107286453
# 7 vertices

o cube_6_1
usemtl Mat
f 212 214 213 210
f 211 212 210 209
f 215 211 209 207
f 214 215 207 213
f 207 209 210 213
f 214 212 211 215

v 0.6971235871315 268.00619506835938 -0.22005845606327
v 0.57216435670853 268.01141357421875 -0.00214880029671
v 0.56068104505539 267.92880249023438 -0.00675879698247
v 1.05755305290222 267.936279296875 0.27799072861671
v 1.1825122833252 267.93109130859375 0.06008108705282
v 1.04606974124908 267.85369873046875 0.27338075637817
# 6 vertices

o cube_7_1
usemtl Mat
f 218 221 219 217
f 206 218 217 216
f 208 206 216 220
f 221 208 220 219
f 220 216 217 219
f 221 218 206 208

v 0.62958091497421 268.4244384765625 0.02090118266642
v 0.74305683374405 268.33663940429688 -0.20161846280098
v 0.61809760332108 268.34182739257812 0.01629118621349
# 3 vertices

o cube_8_1
usemtl Mat
f 224 212 210 222
f 223 224 222 204
f 211 223 204 209
f 212 211 209 210
f 209 204 222 210
f 212 224 223 211

v 0.59834110736847 268.42575073242188 0.07537859678268
v 0.52944123744965 267.93008422851562 0.04771861433983
# 2 vertices

o cube_9_1
usemtl Mat
f 226 168 166 225
f 218 226 225 222
f 221 218 222 213
f 168 221 213 166
f 213 222 225 166
f 168 226 218 221

v 0.77961945533752 268.14453125 0.18605506420136
v 0.74837970733643 268.14584350585938 0.24053248763084
v 0.76813614368439 268.06192016601562 0.18144507706165
v 0.73689639568329 268.063232421875 0.23592248558998
v 1.01804006099701 268.1041259765625 0.3961655497551
v 1.04927980899811 268.10281372070312 0.34168815612793
v 1.00655674934387 268.02151489257812 0.39155554771423
v 1.03779649734497 268.02020263671875 0.33707815408707
# 8 vertices

o cube_10_1
usemtl Mat
f 230 233 231 228
f 229 230 228 227
f 234 229 227 232
f 233 234 232 231
f 232 227 228 231
f 233 230 229 234

v 0.87600034475327 268.04522705078125 0.24369829893112
v 0.84476053714752 268.04653930664062 0.29817572236061
v 0.86451703310013 267.962646484375 0.23908831179142
v 0.83327722549438 267.96392822265625 0.29356572031975
v 1.06048882007599 268.01315307617188 0.42268216609955
v 1.09172856807709 268.01187133789062 0.36820477247238
v 1.04900550842285 267.9305419921875 0.41807219386101
# 7 vertices

o cube_11_1
usemtl Mat
f 238 241 239 236
f 237 238 236 235
f 175 237 235 240
f 241 175 240 239
f 240 235 236 239
f 241 238 237 175

v 0.97881597280502 268.3916015625 -0.21258345246315
v 0.94757616519928 268.39288330078125 -0.15810602903366
v 0.94436603784561 268.14376831054688 -0.22641344368458
v 0.91312623023987 268.14508056640625 -0.17193602025509
# 4 vertices

o cube_12_1
usemtl Mat
f 245 198 170 243
f 244 245 243 242
f 197 244 242 196
f 198 197 196 170
f 196 242 243 170
f 198 245 244 197

v -1.02724540233612 267.63449096679688 0.05678745731711
v -0.19505588710308 268.08734130859375 0.53725230693817
v -0.91550832986832 267.63449096679688 -0.13674686849117
v -0.08331878483295 268.08734130859375 0.34371796250343
v -1.07154989242554 268.01681518554688 -0.22683756053448
v -0.23936042189598 268.46966552734375 0.25362727046013
v -1.18328702449799 268.01681518554688 -0.03330322727561
v -0.35109752416611 268.46966552734375 0.44716161489487
# 8 vertices

# 0 texture coordinate

o arm.1_1
usemtl Mat
f 248/21 249/20 247/1 246/19
f 250/21 251/20 249/1 248/19
f 252/21 253/20 251/1 250/19
f 246/21 247/20 253/1 252/19
f 249/21 251/20 253/1 247/19
f 250/21 248/20 246/1 252/19

v -0.02380745485425 267.25198364257812 0.37037399411201
v -0.02380745485425 268.31427001953125 0.37037399411201
v 0.30884957313538 267.25198364257812 -0.20580485463142
v 0.30884957313538 268.31427001953125 -0.20580485463142
v -0.05718024075031 267.25198364257812 -0.41713225841522
v -0.05718024075031 268.31427001953125 -0.41713225841522
v -0.38983726501465 267.25198364257812 0.15904659032822
v -0.38983726501465 268.31427001953125 0.15904659032822
# 8 vertices

# 0 texture coordinate

o body
usemtl default
f 256/21 257/20 255/1 254/19
f 258/21 259/20 257/1 256/19
f 260/21 261/20 259/1 258/19
f 254/21 255/20 261/1 260/19
f 257/21 259/20 261/1 255/19
f 258/21 256/20 254/1 260/19

v 0.08126706629992 268.32061767578125 0.4310387969017
v 0.08126706629992 268.98593139648438 0.4310387969017
v 0.41392409801483 268.32061767578125 -0.14514005184174
v 0.41392409801483 268.98593139648438 -0.14514005184174
v -0.16225476562977 268.32061767578125 -0.47779706120491
v -0.16225476562977 268.98593139648438 -0.47779706120491
v -0.4949117898941 268.32061767578125 0.09838178008795
v -0.4949117898941 268.98593139648438 0.09838178008795
# 8 vertices

# 0 texture coordinate

o Head
usemtl default
f 264/21 265/20 263/1 262/19
f 266/21 267/20 265/1 264/19
f 268/21 269/20 267/1 266/19
f 262/21 263/20 269/1 268/19
f 265/21 267/20 269/1 263/19
f 266/21 264/20 262/1 268/19

