{
	"asset":{
		"version":"2.0",
		"generator":"Created using the official Cinema 4D glTF Exporter 1.000x290161"
	},
	"scenes":[{
		"nodes":[0]
	}],
	"nodes":[{
		"name":"samas",
		"translation":[0.0,
		267.295654296875,
		0.0],
		"rotation":[0.0,
		0.0,
		0.0,
		-1.0],
		"scale":[1.0,
		1.0,
		1.0],
		"children":[1]
	},
	{
		"name":"Kyilkhor.1",
		"translation":[0.11377555131912232,
		0.46110448241233828,
		0.03413396328687668],
		"rotation":[0.0,
		0.0,
		0.0,
		-1.0],
		"scale":[1.0,
		1.0,
		1.0],
		"mesh":0
	}],
	"meshes":[{
		"primitives":[{
			"attributes":{
				"POSITION":1,
				"NORMAL":2,
				"TEXCOORD_0":3
			},
			"indices":0,
			"material":0
		}]
	}],
	"accessors":[{
		"bufferView":0,
		"type":"SCALAR",
		"componentType":5123,
		"count":1080,
		"byteOffset":0,
		"min":[0],
		"max":[719]
	},
	{
		"bufferView":1,
		"type":"VEC3",
		"componentType":5126,
		"count":720,
		"byteOffset":0,
		"min":[-0.5585567951202393,
		-1.579148769378662,
		-0.43280673027038576],
		"max":[0.5585567951202393,
		1.579148769378662,
		0.43280673027038576]
	},
	{
		"bufferView":1,
		"type":"VEC3",
		"componentType":5126,
		"count":720,
		"byteOffset":12,
		"min":[-1.0,
		-1.0,
		-1.0],
		"max":[1.0,
		1.0,
		1.0]
	},
	{
		"bufferView":1,
		"type":"VEC2",
		"componentType":5126,
		"count":720,
		"byteOffset":24,
		"min":[0.0,
		0.0],
		"max":[1.0,
		1.0]
	}],
	"bufferViews":[{
		"buffer":0,
		"byteOffset":0,
		"byteLength":2160,
		"target":34963
	},
	{
		"buffer":0,
		"byteOffset":2160,
		"byteLength":23040,
		"target":34962,
		"byteStride":32
	}],
	"buffers":[{
		"uri":"data:application/octet-stream;base64,",
		"byteLength":25200
	}],
	"materials":[{
		"pbrMetallicRoughness":{
			"baseColorFactor":[0.04439999999999995,
			0.11395999999999969,
			0.74,
			1.0],
			"metallicFactor":0.0,
			"roughnessFactor":0.5
		},
		"emissiveFactor":[0.0,
		0.0,
		0.0],
		"alphaMode":"OPAQUE",
		"doubleSided":false,
		"name":"Mat_22"
	}]
}