# WaveFront *.obj file (generated by CINEMA 4D)

v -9.23785400390625 268.997314453125 4.67854022979736
v -9.48285675048828 268.997314453125 4.81999254226685
v -9.23785400390625 268.94073486328125 4.67854022979736
v -9.48285675048828 268.94073486328125 4.81999254226685
v -8.91704654693604 268.997314453125 5.80000448226929
v -8.672043800354 268.997314453125 5.65855169296265
v -8.91704654693604 268.94073486328125 5.80000448226929
v -8.672043800354 268.94073486328125 5.65855169296265
# 8 vertices

vn -0.86602538824081 0 0.5
vn -0.5 0 -0.86602538824081
vn 0.86602538824081 0 -0.5
vn 0.5 0 0.86602538824081
vn 0 1 0
vn 0 -1 0
# 6 normals

vt 0 1 0
vt 1 1 0
vt 1 0.9375 0
vt 0 0.9375 0
vt 0.3125 1 0
vt 0.3125 0.9375 0
vt 1 0.6875 0
vt 0 0.6875 0
# 8 texture coordinates

o cube
usemtl Mat
f 4/4/1 7/3/1 5/2/1 2/1/1
f 3/4/2 4/6/2 2/5/2 1/1/2
f 8/4/3 3/3/3 1/2/3 6/1/3
f 7/4/4 8/6/4 6/5/4 5/1/4
f 6/8/5 1/7/5 2/2/5 5/1/5
f 7/8/6 4/7/6 3/2/6 8/1/6

v -8.4048433303833 268.997314453125 4.19760179519653
v -8.64984703063965 268.997314453125 4.33905410766602
v -8.4048433303833 268.94073486328125 4.19760179519653
v -8.64984703063965 268.94073486328125 4.33905410766602
v -8.0840368270874 268.997314453125 5.31906604766846
v -7.83903360366821 268.997314453125 5.17761325836182
v -8.0840368270874 268.94073486328125 5.31906604766846
v -7.83903360366821 268.94073486328125 5.17761325836182
# 8 vertices

# 0 normal

# 0 texture coordinate

o cube_1
usemtl Mat
f 12/4/1 15/3/1 13/2/1 10/1/1
f 11/4/2 12/6/2 10/5/2 9/1/2
f 16/4/3 11/3/3 9/2/3 14/1/3
f 15/4/4 16/6/4 14/5/4 13/1/4
f 14/8/5 9/7/5 10/2/5 13/1/5
f 15/8/6 12/7/6 11/2/6 16/1/6

v -9.1246919631958 268.997314453125 4.87454271316528
v -8.5366849899292 268.997314453125 4.53505659103394
v -9.1246919631958 268.94073486328125 4.87454271316528
v -8.5366849899292 268.94073486328125 4.53505659103394
# 4 vertices

# 0 normal

vt 0.25 1 0
vt 0.25 0.9375 0
vt 0.75 1 0
vt 0.75 0.9375 0
vt 0.25 0.25 0
vt 0 0.25 0
# 6 texture coordinates

o cube_2
usemtl Mat
f 3/4/1 19/10/1 17/9/1 1/1/1
f 12/4/2 3/12/2 1/11/2 10/1/2
f 20/4/3 12/10/3 10/9/3 18/1/3
f 19/4/4 20/12/4 18/11/4 17/1/4
f 18/14/5 10/13/5 1/9/5 17/1/5
f 19/14/6 3/13/6 12/9/6 20/1/6

v -8.19719886779785 268.997314453125 5.12306356430054
v -8.78520584106445 268.997314453125 5.46254968643188
v -8.19719886779785 268.94073486328125 5.12306356430054
v -8.78520584106445 268.94073486328125 5.46254968643188
# 4 vertices

# 0 normal

# 0 texture coordinate

o cube_3
usemtl Mat
f 24/4/1 8/10/1 6/9/1 22/1/1
f 23/4/2 24/12/2 22/11/2 21/1/2
f 15/4/3 23/10/3 21/9/3 13/1/3
f 8/4/4 15/12/4 13/11/4 6/1/4
f 13/14/5 21/13/5 22/9/5 6/1/5
f 8/14/6 24/13/6 23/9/6 15/1/6

v -8.22548866271973 269.05389404296875 5.07406282424927
v -8.81349658966064 269.05389404296875 5.41354894638062
v -8.22548866271973 268.997314453125 5.07406282424927
v -8.81349658966064 268.997314453125 5.41354894638062
v -8.78520584106445 269.05389404296875 5.46254968643188
v -8.19719886779785 269.05389404296875 5.12306356430054
# 6 vertices

# 0 normal

vt 0.0625 1 0
vt 0.0625 0.9375 0
vt 0.0625 0.25 0
# 3 texture coordinates

o cube_4
usemtl Mat
f 28/4/1 22/16/1 29/15/1 26/1/1
f 27/4/2 28/12/2 26/11/2 25/1/2
f 21/4/3 27/16/3 25/15/3 30/1/3
f 22/4/4 21/12/4 30/11/4 29/1/4
f 30/14/5 25/17/5 26/15/5 29/1/5
f 22/14/6 28/17/6 27/15/6 21/1/6

v -8.5366849899292 269.05389404296875 4.53505659103394
v -9.1246919631958 269.05389404296875 4.87454271316528
v -9.09640121459961 269.05389404296875 4.92354297637939
v -8.50839424133301 269.05389404296875 4.58405685424805
v -9.09640121459961 268.997314453125 4.92354297637939
v -8.50839424133301 268.997314453125 4.58405685424805
# 6 vertices

# 0 normal

# 0 texture coordinate

o cube_5
usemtl Mat
f 17/4/1 35/16/1 33/15/1 32/1/1
f 18/4/2 17/12/2 32/11/2 31/1/2
f 36/4/3 18/16/3 31/15/3 34/1/3
f 35/4/4 36/12/4 34/11/4 33/1/4
f 34/14/5 31/17/5 32/15/5 33/1/5
f 35/14/6 17/17/6 18/15/6 36/1/6

v -9.07569122314453 269.05389404296875 4.84625196456909
v -9.07569122314453 268.997314453125 4.84625196456909
v -8.73620510101318 269.05389404296875 5.43425893783569
v -8.73620510101318 268.997314453125 5.43425893783569
# 4 vertices

# 0 normal

# 0 texture coordinate

o cube_6
usemtl Mat
f 17/4/1 22/12/1 29/11/1 32/1/1
f 38/4/2 17/16/2 32/15/2 37/1/2
f 40/4/3 38/12/3 37/11/3 39/1/3
f 22/4/4 40/16/4 39/15/4 29/1/4
f 39/4/5 37/12/5 32/11/5 29/1/5
f 22/4/6 17/12/6 38/11/6 40/1/6

v -8.58568477630615 269.05389404296875 4.56334686279297
v -8.58568477630615 268.997314453125 4.56334686279297
v -8.24619960784912 269.05389404296875 5.15135383605957
v -8.24619960784912 268.997314453125 5.15135383605957
# 4 vertices

# 0 normal

# 0 texture coordinate

o cube_7
usemtl Mat
f 42/4/1 44/12/1 43/11/1 41/1/1
f 18/4/2 42/16/2 41/15/2 31/1/2
f 21/4/3 18/12/3 31/11/3 30/1/3
f 44/4/4 21/16/4 30/15/4 43/1/4
f 30/4/5 31/12/5 41/11/5 43/1/5
f 44/4/6 42/12/6 18/11/6 21/1/6

v -8.5366849899292 269.2236328125 4.53505659103394
v -9.1246919631958 269.2236328125 4.87454271316528
v -8.78520584106445 269.2236328125 5.46254968643188
v -8.19719886779785 269.2236328125 5.12306356430054
# 4 vertices

# 0 normal

vt 0.75 0.8125 0
vt 0 0.8125 0
vt 0.75 0.25 0
# 3 texture coordinates

o cube_8
usemtl Mat
f 32/19/1 29/18/1 47/11/1 46/1/1
f 31/19/2 32/18/2 46/11/2 45/1/2
f 30/19/3 31/18/3 45/11/3 48/1/3
f 29/19/4 30/18/4 48/11/4 47/1/4
f 48/14/5 45/20/5 46/11/5 47/1/5
f 29/14/6 32/20/6 31/11/6 30/1/6

v -8.55739498138428 269.28021240234375 4.61234760284424
v -9.04740047454834 269.28021240234375 4.89525270462036
v -8.55739498138428 269.2236328125 4.61234760284424
v -9.04740047454834 269.2236328125 4.89525270462036
v -8.76449584960938 269.28021240234375 5.38525819778442
v -8.274489402771 269.28021240234375 5.10235357284546
v -8.76449584960938 269.2236328125 5.38525819778442
v -8.274489402771 269.2236328125 5.10235357284546
# 8 vertices

# 0 normal

vt 0.625 1 0
vt 0.625 0.9375 0
vt 0.625 0.375 0
vt 0 0.375 0
# 4 texture coordinates

o cube_9
usemtl Mat
f 52/4/1 55/22/1 53/21/1 50/1/1
f 51/4/2 52/22/2 50/21/2 49/1/2
f 56/4/3 51/22/3 49/21/3 54/1/3
f 55/4/4 56/22/4 54/21/4 53/1/4
f 54/24/5 49/23/5 50/21/5 53/1/5
f 55/24/6 52/23/6 51/21/6 56/1/6

v -8.32563400268555 268.75164794921875 4.97458171844482
v -8.32563400268555 268.82415771484375 4.97458171844482
v -8.28937435150146 268.75164794921875 5.03738498687744
v -8.28937435150146 268.82415771484375 5.03738498687744
v -8.22657108306885 268.75164794921875 5.00112533569336
v -8.22657108306885 268.82415771484375 5.00112533569336
v -8.26283073425293 268.75164794921875 4.93832206726074
v -8.26283073425293 268.82415771484375 4.93832206726074
# 8 vertices

vn -0.86602437496185 0 0.50000178813934
vn 0.50000178813934 0 0.86602437496185
vn 0.86602437496185 0 -0.50000178813934
vn -0.50000178813934 0 -0.86602437496185
# 4 normals

vt 0 0 0
vt 1 0 0
# 2 texture coordinates

o Head.1
usemtl default
f 59/26/7 60/2/7 58/1/7 57/25/7
f 61/26/8 62/2/8 60/1/8 59/25/8
f 63/26/9 64/2/9 62/1/9 61/25/9
f 57/26/10 58/2/10 64/1/10 63/25/10
f 60/26/5 62/2/5 64/1/5 58/25/5
f 61/26/6 59/2/6 57/1/6 63/25/6

v -8.36151790618896 268.75164794921875 4.91242837905884
v -8.36151790618896 268.82415771484375 4.91242837905884
v -8.32525825500488 268.75164794921875 4.97523212432861
v -8.32525825500488 268.82415771484375 4.97523212432861
v -8.26245498657227 268.75164794921875 4.93897247314453
v -8.26245498657227 268.82415771484375 4.93897247314453
v -8.29871463775635 268.75164794921875 4.87616920471191
v -8.29871463775635 268.82415771484375 4.87616920471191
# 8 vertices

vn -0.86602604389191 0 0.49999889731407
vn -0.49999678134918 0 -0.8660272359848
# 2 normals

# 0 texture coordinate

o Head.2
usemtl default
f 67/26/11 68/2/11 66/1/11 65/25/11
f 69/26/8 70/2/8 68/1/8 67/25/8
f 71/26/9 72/2/9 70/1/9 69/25/9
f 65/26/12 66/2/12 72/1/12 71/25/12
f 68/26/5 70/2/5 72/1/5 66/25/5
f 69/26/6 67/2/6 65/1/6 71/25/6

v -8.36151790618896 268.67886352539062 4.91242837905884
v -8.36151790618896 268.75137329101562 4.91242837905884
v -8.32525825500488 268.67886352539062 4.97523212432861
v -8.32525825500488 268.75137329101562 4.97523212432861
v -8.26245498657227 268.67886352539062 4.93897247314453
v -8.26245498657227 268.75137329101562 4.93897247314453
v -8.29871463775635 268.67886352539062 4.87616920471191
v -8.29871463775635 268.75137329101562 4.87616920471191
# 8 vertices

# 0 normal

# 0 texture coordinate

o Head.3
usemtl default
f 75/26/11 76/2/11 74/1/11 73/25/11
f 77/26/8 78/2/8 76/1/8 75/25/8
f 79/26/9 80/2/9 78/1/9 77/25/9
f 73/26/12 74/2/12 80/1/12 79/25/12
f 76/26/5 78/2/5 80/1/5 74/25/5
f 77/26/6 75/2/6 73/1/6 79/25/6

v -8.41372203826904 268.75164794921875 4.70568370819092
v -8.41372203826904 268.82415771484375 4.70568370819092
v -8.44998168945312 268.75164794921875 4.64287996292114
v -8.44998168945312 268.82415771484375 4.64287996292114
v -8.51278495788574 268.75164794921875 4.67913961410522
v -8.51278495788574 268.82415771484375 4.67913961410522
v -8.47652530670166 268.75164794921875 4.74194288253784
v -8.47652530670166 268.82415771484375 4.74194288253784
# 8 vertices

vn 0.86602604389191 0 -0.49999889731407
vn 0.49999678134918 0 0.8660272359848
# 2 normals

# 0 texture coordinate

o Head.1_1
usemtl default
f 83/26/13 84/2/13 82/1/13 81/25/13
f 85/26/10 86/2/10 84/1/10 83/25/10
f 87/26/7 88/2/7 86/1/7 85/25/7
f 81/26/14 82/2/14 88/1/14 87/25/14
f 84/26/5 86/2/5 88/1/5 82/25/5
f 85/26/6 83/2/6 81/1/6 87/25/6

v -8.37783813476562 268.75164794921875 4.76783657073975
v -8.37783813476562 268.82415771484375 4.76783657073975
v -8.41409778594971 268.75164794921875 4.70503282546997
v -8.41409778594971 268.82415771484375 4.70503282546997
v -8.47690105438232 268.75164794921875 4.74129247665405
v -8.47690105438232 268.82415771484375 4.74129247665405
v -8.44064140319824 268.75164794921875 4.80409622192383
v -8.44064140319824 268.82415771484375 4.80409622192383
# 8 vertices

# 0 normal

# 0 texture coordinate

o Head.2_1
usemtl default
f 91/26/13 92/2/13 90/1/13 89/25/13
f 93/26/10 94/2/10 92/1/10 91/25/10
f 95/26/11 96/2/11 94/1/11 93/25/11
f 89/26/8 90/2/8 96/1/8 95/25/8
f 92/26/5 94/2/5 96/1/5 90/25/5
f 93/26/6 91/2/6 89/1/6 95/25/6

v -8.37783813476562 268.67886352539062 4.76783657073975
v -8.37783813476562 268.75137329101562 4.76783657073975
v -8.41409778594971 268.67886352539062 4.70503282546997
v -8.41409778594971 268.75137329101562 4.70503282546997
v -8.47690105438232 268.67886352539062 4.74129247665405
v -8.47690105438232 268.75137329101562 4.74129247665405
v -8.44064140319824 268.67886352539062 4.80409622192383
v -8.44064140319824 268.75137329101562 4.80409622192383
# 8 vertices

# 0 normal

# 0 texture coordinate

o Head.3_1
usemtl default
f 99/26/13 100/2/13 98/1/13 97/25/13
f 101/26/10 102/2/10 100/1/10 99/25/10
f 103/26/11 104/2/11 102/1/11 101/25/11
f 97/26/8 98/2/8 104/1/8 103/25/8
f 100/26/5 102/2/5 104/1/5 98/25/5
f 101/26/6 99/2/6 97/1/6 103/25/6

v -8.29524040222168 268.46377563476562 4.86236715316772
v -8.29524040222168 268.52468872070312 4.86236715316772
v -8.36149883270264 268.46377563476562 4.74760341644287
v -8.36149883270264 268.52468872070312 4.74760341644287
v -8.72752857208252 268.46377563476562 4.95893096923828
v -8.72752857208252 268.52468872070312 4.95893096923828
v -8.66127014160156 268.46377563476562 5.07369470596313
v -8.66127014160156 268.52468872070312 5.07369470596313
# 8 vertices

vn 0.86602687835693 0 -0.49999749660492
vn -0.50000029802322 0 -0.86602520942688
vn -0.86602687835693 0 0.49999749660492
vn 0.50000029802322 0 0.86602520942688
# 4 normals

# 0 texture coordinate

o arm.2
usemtl default
f 107/26/15 108/2/15 106/1/15 105/25/15
f 109/26/16 110/2/16 108/1/16 107/25/16
f 111/26/17 112/2/17 110/1/17 109/25/17
f 105/26/18 106/2/18 112/1/18 111/25/18
f 108/26/5 110/2/5 112/1/5 106/25/5
f 109/26/6 107/2/6 105/1/6 111/25/6

v -8.25189876556396 268.40664672851562 4.88985776901245
v -8.25189876556396 268.46755981445312 4.88985776901245
v -8.3636360168457 268.40664672851562 4.69632339477539
v -8.3636360168457 268.46755981445312 4.69632339477539
v -8.77087020874023 268.40664672851562 4.93144035339355
v -8.77087020874023 268.46755981445312 4.93144035339355
v -8.6591329574585 268.40664672851562 5.12497472763062
v -8.6591329574585 268.46755981445312 5.12497472763062
# 8 vertices

vn 0.86602514982224 0 -0.50000047683716
vn -0.86602514982224 0 0.50000047683716
# 2 normals

# 0 texture coordinate

o arm.1
usemtl default
f 115/26/19 116/2/19 114/1/19 113/25/19
f 117/26/16 118/2/16 116/1/16 115/25/16
f 119/26/20 120/2/20 118/1/20 117/25/20
f 113/26/18 114/2/18 120/1/18 119/25/18
f 116/26/5 118/2/5 120/1/5 114/25/5
f 117/26/6 115/2/6 113/1/6 119/25/6

v -8.27250099182129 268.3404541015625 4.90175247192383
v -8.27250099182129 268.4013671875 4.90175247192383
v -8.38423824310303 268.3404541015625 4.70821809768677
v -8.38423824310303 268.4013671875 4.70821809768677
v -8.75026798248291 268.3404541015625 4.91954565048218
v -8.75026798248291 268.4013671875 4.91954565048218
v -8.63853073120117 268.3404541015625 5.11308002471924
v -8.63853073120117 268.4013671875 5.11308002471924
# 8 vertices

# 0 normal

# 0 texture coordinate

o arm
usemtl default
f 123/26/19 124/2/19 122/1/19 121/25/19
f 125/26/16 126/2/16 124/1/16 123/25/16
f 127/26/20 128/2/20 126/1/20 125/25/20
f 121/26/18 122/2/18 128/1/18 127/25/18
f 124/26/5 126/2/5 128/1/5 122/25/5
f 125/26/6 123/2/6 121/1/6 127/25/6

v -8.23099994659424 266.3126220703125 4.74237537384033
v -8.54903793334961 267.30941772460938 4.92599439620972
v -8.38947010040283 266.3126220703125 4.46789789199829
v -8.70750713348389 267.30941772460938 4.65151691436768
v -8.73293209075928 266.16650390625 4.66619539260864
v -9.05096912384033 267.16329956054688 4.84981441497803
v -8.57446193695068 266.16650390625 4.94067287445068
v -8.89249992370605 267.16329956054688 5.12429189682007
# 8 vertices

o leg
usemtl Mat
f 131 132 130 129
f 133 134 132 131
f 135 136 134 133
f 129 130 136 135
f 132 134 136 130
f 133 131 129 135

v -8.70568180084229 266.21551513671875 5.40565967559814
v -8.34848880767822 267.1944580078125 5.19943428039551
v -8.86415100097656 266.21551513671875 5.1311821937561
v -8.50695896148682 267.1944580078125 4.92495679855347
v -9.20146560668945 266.37960815429688 5.32593059539795
v -8.84427261352539 267.35858154296875 5.11970520019531
v -9.04299545288086 266.37960815429688 5.60040807723999
v -8.68580341339111 267.35858154296875 5.39418315887451
# 8 vertices

o leg.1
usemtl Mat
f 139 140 138 137
f 141 142 140 139
f 143 144 142 141
f 137 138 144 143
f 140 142 144 138
f 141 139 137 143

v -8.31091022491455 267.25198364257812 5.1824254989624
v -8.31091022491455 268.31427001953125 5.1824254989624
v -8.64356803894043 267.25198364257812 4.60624694824219
v -8.64356803894043 268.31427001953125 4.60624694824219
v -9.00959777832031 267.25198364257812 4.8175745010376
v -9.00959777832031 268.31427001953125 4.8175745010376
v -8.67693996429443 267.25198364257812 5.39375305175781
v -8.67693996429443 268.31427001953125 5.39375305175781
# 8 vertices

# 0 texture coordinate

o body
usemtl default
f 147/26 148/2 146/1 145/25
f 149/26 150/2 148/1 147/25
f 151/26 152/2 150/1 149/25
f 145/26 146/2 152/1 151/25
f 148/26 150/2 152/1 146/25
f 149/26 147/2 145/1 151/25

v -8.20583629608154 268.32061767578125 5.12176084518433
v -8.20583629608154 268.98593139648438 5.12176084518433
v -8.53849315643311 268.32061767578125 4.54558229446411
v -8.53849315643311 268.98593139648438 4.54558229446411
v -9.11467170715332 268.32061767578125 4.87823915481567
v -9.11467170715332 268.98593139648438 4.87823915481567
v -8.78201484680176 268.32061767578125 5.45441770553589
v -8.78201484680176 268.98593139648438 5.45441770553589
# 8 vertices

# 0 texture coordinate

o Head
usemtl default
f 155/26 156/2 154/1 153/25
f 157/26 158/2 156/1 155/25
f 159/26 160/2 158/1 157/25
f 153/26 154/2 160/1 159/25
f 156/26 158/2 160/1 154/25
f 157/26 155/2 153/1 159/25

v -8.06180572509766 268.51980590820312 4.27246809005737
v -8.97179222106934 268.36367797851562 4.79784870147705
v -8.17354297637939 268.51980590820312 4.07893371582031
v -9.08352947235107 268.36367797851562 4.60431432723999
v -8.11974906921387 268.10171508789062 4.04787540435791
v -9.02973461151123 267.94561767578125 4.57325601577759
v -8.00801181793213 268.10171508789062 4.24140977859497
v -8.91799736022949 267.94561767578125 4.76679039001465
# 8 vertices

o arm_1
usemtl Mat
f 163 164 162 161
f 165 166 164 163
f 167 168 166 165
f 161 162 168 167
f 164 166 168 162
f 165 163 161 167

v -7.75225353240967 268.89007568359375 5.12563371658325
v -8.54433441162109 268.3497314453125 5.58294153213501
v -7.86399078369141 268.89007568359375 4.93209934234619
v -8.65607166290283 268.3497314453125 5.38940715789795
v -7.67781352996826 268.52618408203125 4.82460975646973
v -8.46989440917969 267.98583984375 5.28191804885864
v -7.56607675552368 268.52618408203125 5.01814413070679
v -8.35815715789795 267.98583984375 5.47545194625854
# 8 vertices

o arm.1_1
usemtl Mat
f 171 172 170 169
f 173 174 172 171
f 175 176 174 173
f 169 170 176 175
f 172 174 176 170
f 173 171 169 175

