{
	"asset":{
		"version":"2.0",
		"generator":"Created using the official Cinema 4D glTF Exporter 1.000x290161"
	},
	"scenes":[{
		"nodes":[0]
	}],
	"nodes":[{
		"name":"Boole.1",
		"translation":[132.6889190673828,
		-127.89826202392578,
		175.01780700683595],
		"rotation":[0.00038888989365659654,
		0.021381445229053499,
		0.0059811691753566269,
		0.9997534155845642],
		"scale":[1.0,
		1.0,
		1.0],
		"mesh":0
	}],
	"meshes":[{
		"primitives":[{
			"attributes":{
				"POSITION":1,
				"TEXCOORD_0":3,
				"NORMAL":2
			},
			"indices":0,
			"material":0
		}]
	}],
	"accessors":[{
		"bufferView":0,
		"count":47286,
		"type":"SCALAR",
		"componentType":5123,
		"byteOffset":0,
		"min":[0],
		"max":[14750]
	},
	{
		"bufferView":1,
		"count":14751,
		"type":"VEC3",
		"componentType":5126,
		"byteOffset":0,
		"min":[-115.91829681396485,
		-114.49446868896485,
		-115.897216796875],
		"max":[115.91829681396485,
		114.49446868896485,
		115.897216796875]
	},
	{
		"bufferView":1,
		"count":14751,
		"type":"VEC3",
		"componentType":5126,
		"byteOffset":12,
		"min":[-1.0,
		-1.0,
		-0.9993438124656677],
		"max":[1.0,
		1.0,
		0.9993438124656677]
	},
	{
		"bufferView":1,
		"count":14751,
		"type":"VEC2",
		"componentType":5126,
		"byteOffset":24,
		"min":[-9.987491607666016,
		0.025525469332933427],
		"max":[16.950820922851564,
		0.9349998235702515]
	}],
	"bufferViews":[{
		"buffer":0,
		"byteOffset":0,
		"byteLength":94572,
		"target":34963
	},
	{
		"buffer":0,
		"byteOffset":94572,
		"byteLength":472032,
		"target":34962,
		"byteStride":32
	}],
	"buffers":[{
		"uri":"data:application/octet-stream;base64,",
		"byteLength":566604
	}],
	"materials":[{
		"pbrMetallicRoughness":{
			"baseColorFactor":[0.8,
			0.088,
			0.8,
			1.0],
			"metallicFactor":0.0,
			"roughnessFactor":0.5
		},
		"emissiveFactor":[0.0,
		0.0,
		0.0],
		"alphaMode":"OPAQUE",
		"doubleSided":false,
		"name":"Mat"
	}]
}